Coordinates
version=1
nRows=36
nColumns=38
inDegrees=no

Units are S.I. units (second, meters, Newtons, ...)
If the header above contains a line with 'inDegrees', this indicates whether rotational values are in degrees (yes) or radians (no).

endheader
time	pelvis_tilt	pelvis_list	pelvis_rotation	pelvis_tx	pelvis_ty	pelvis_tz	hip_flexion_r	hip_adduction_r	hip_rotation_r	knee_angle_r	ankle_angle_r	subtalar_angle_r	mtp_angle_r	hip_flexion_l	hip_adduction_l	hip_rotation_l	knee_angle_l	ankle_angle_l	subtalar_angle_l	mtp_angle_l	lumbar_extension	lumbar_bending	lumbar_rotation	arm_flex_r	arm_add_r	arm_rot_r	elbow_flex_r	pro_sup_r	wrist_flex_r	wrist_dev_r	arm_flex_l	arm_add_l	arm_rot_l	elbow_flex_l	pro_sup_l	wrist_flex_l	wrist_dev_l
5.445	-0.162172	-0.0323791	-3.11968	-0.163177	0.976325	0.00440515	0.155945	-0.164023	-0.164419	1.23845	-0.0417622	0	0	0.12006	0.0613356	-0.107732	0.504663	0.254114	0	0	-0.419339	-0.0695224	0.0597031	0.242811	-0.299219	1.51642	0.434744	0.0327456	0	0	0.437983	-0.281078	1.42965	0.550249	0.0677037	0	0
5.45499	-0.159646	-0.0263402	-3.11309	-0.160854	0.979015	0.00558878	0.179993	-0.15681	-0.174276	1.22457	-0.0248629	0	0	0.0989808	0.0589939	-0.0969655	0.484406	0.256893	0	0	-0.418849	-0.0595641	0.0550169	0.217694	-0.308137	1.51484	0.429357	0.0229384	0	0	0.472199	-0.278112	1.43061	0.561869	0.0817707	0	0
5.46498	-0.157435	-0.0207484	-3.10618	-0.158484	0.981443	0.00673579	0.202292	-0.150233	-0.185223	1.20649	-0.00831689	0	0	0.0777104	0.0568593	-0.0858891	0.464145	0.259653	0	0	-0.418597	-0.049953	0.0499561	0.19335	-0.31741	1.5132	0.424889	0.0163115	0	0	0.50629	-0.275648	1.4316	0.574342	0.0971902	0	0
5.47497	-0.155606	-0.0157262	-3.0992	-0.156073	0.983576	0.00783289	0.222868	-0.144419	-0.196939	1.18447	0.00765117	0	0	0.0562021	0.055029	-0.0747529	0.44399	0.262511	0	0	-0.418652	-0.0409085	0.044625	0.1699	-0.326881	1.51158	0.421122	0.0122463	0	0	0.54017	-0.273738	1.43253	0.587649	0.113786	0	0
5.48496	-0.154214	-0.0113704	-3.09241	-0.153628	0.985386	0.00886571	0.241758	-0.139426	-0.209083	1.15875	0.0228175	0	0	0.0344019	0.0535881	-0.0638158	0.424015	0.265571	0	0	-0.41907	-0.0326224	0.039142	0.147446	-0.336411	1.51	0.417865	0.0101437	0	0	0.573735	-0.27244	1.43324	0.601782	0.131398	0	0
5.49495	-0.153298	-0.00774883	-3.08607	-0.151155	0.986854	0.00981988	0.258998	-0.135249	-0.221321	1.12954	0.0369832	0	0	0.0122554	0.0526074	-0.0533229	0.40427	0.268923	0	0	-0.419897	-0.0252491	0.0336305	0.126071	-0.345884	1.50843	0.414965	0.00946465	0	0	0.606862	-0.271822	1.43354	0.616734	0.149915	0	0
5.50494	-0.15288	-0.00489844	-3.08042	-0.148663	0.987964	0.0106816	0.274625	-0.131819	-0.233335	1.097	0.0499895	0	0	-0.0102807	0.0521416	-0.0434913	0.384794	0.272642	0	0	-0.421159	-0.0189011	0.0282164	0.105836	-0.355204	1.50681	0.412294	0.00975124	0	0	0.639405	-0.271946	1.43315	0.632486	0.169292	0	0
5.51494	-0.152957	-0.00282609	-3.07568	-0.146163	0.98871	0.0114389	0.28868	-0.129014	-0.244824	1.06126	0.0617192	0	0	-0.0332175	0.0522276	-0.0344997	0.365637	0.276794	0	0	-0.422857	-0.0136459	0.0230193	0.0867855	-0.364295	1.50502	0.40975	0.0106342	0	0	0.671197	-0.272866	1.43175	0.649001	0.189522	0	0
5.52493	-0.153495	-0.00151107	-3.07202	-0.143665	0.989085	0.0120821	0.301218	-0.126671	-0.255512	1.0224	0.0721042	0	0	-0.0565099	0.0528827	-0.0264813	0.346882	0.281439	0	0	-0.424956	-0.00950498	0.0181439	0.0689491	-0.373099	1.50299	0.407255	0.0118301	0	0	0.702051	-0.274626	1.42894	0.666227	0.210629	0	0
5.53492	-0.154417	-0.000909042	-3.06954	-0.14118	0.989087	0.0126045	0.312323	-0.124596	-0.265146	0.980513	0.0811249	0	0	-0.0800395	0.0541029	-0.0195228	0.328661	0.286644	0	0	-0.427381	-0.00645598	0.0136691	0.0523443	-0.381573	1.50062	0.404753	0.013133	0	0	0.731763	-0.277264	1.42429	0.684114	0.232677	0	0
5.54491	-0.155608	-0.000956686	-3.0683	-0.13872	0.988715	0.0130025	0.322106	-0.122586	-0.273507	0.935665	0.0888139	0	0	-0.103613	0.0558619	-0.0136625	0.311154	0.292481	0	0	-0.430008	-0.00443433	0.00963722	0.0369744	-0.389679	1.49785	0.4022	0.0144028	0	0	0.760113	-0.280813	1.41733	0.702602	0.2558	0	0
5.5549	-0.156917	-0.00157364	-3.06828	-0.136296	0.98797	0.0132764	0.330708	-0.12044	-0.2804	0.887971	0.0952566	0	0	-0.126972	0.0581083	-0.00889766	0.294584	0.299023	0	0	-0.432678	-0.00333528	0.00605325	0.022831	-0.397378	1.49471	0.399554	0.0155528	0	0	0.78688	-0.285288	1.40764	0.721623	0.280161	0	0
5.56489	-0.158176	-0.00266312	-3.06939	-0.13392	0.986858	0.0134296	0.338291	-0.117976	-0.28565	0.837597	0.100586	0	0	-0.149817	0.0607647	-0.005192	0.279197	0.306338	0	0	-0.435211	-0.00301859	0.00289514	0.00990011	-0.404637	1.49126	0.396775	0.016537	0	0	0.811855	-0.29068	1.39488	0.741092	0.305896	0	0
5.57488	-0.159217	-0.00411482	-3.07151	-0.131605	0.985386	0.0134681	0.345022	-0.115031	-0.289085	0.784782	0.104985	0	0	-0.171845	0.0637252	-0.0024847	0.265243	0.314482	0	0	-0.437425	-0.00331397	0.000134348	-0.00184765	-0.411425	1.48758	0.393834	0.0173393	0	0	0.834867	-0.296932	1.37893	0.7609	0.333032	0	0
5.58487	-0.159882	-0.00581308	-3.07446	-0.129364	0.983569	0.013399	0.351076	-0.111469	-0.290515	0.729866	0.108697	0	0	-0.192768	0.0668642	-0.000698839	0.252954	0.323495	0	0	-0.439149	-0.00403737	-0.00224403	-0.01247	-0.417717	1.48373	0.390719	0.017964	0	0	0.855808	-0.303924	1.35997	0.780892	0.361407	0	0
5.59486	-0.160036	-0.00764012	-3.07807	-0.127213	0.981428	0.0132294	0.356626	-0.107184	-0.289716	0.673306	0.112024	0	0	-0.212342	0.0700417	0.000253754	0.242528	0.333392	0	0	-0.440235	-0.00499955	-0.00423406	-0.0220548	-0.423494	1.47968	0.387436	0.018428	0	0	0.874636	-0.31147	1.33849	0.800863	0.390677	0	0
5.60485	-0.159581	-0.00947629	-3.08215	-0.125169	0.978988	0.0129655	0.361834	-0.102101	-0.286427	0.615701	0.115314	0	0	-0.230387	0.0731067	0.000474895	0.234111	0.344157	0	0	-0.44057	-0.0060079	-0.00582116	-0.0307036	-0.428748	1.47537	0.38401	0.0187549	0	0	0.891337	-0.319357	1.31508	0.820592	0.420434	0	0
5.61484	-0.158464	-0.0112031	-3.0865	-0.123251	0.976285	0.0126118	0.366836	-0.0961779	-0.280378	0.55779	0.118927	0	0	-0.2468	0.0759027	7.90194e-05	0.2278	0.355729	0	0	-0.440091	-0.00687141	-0.00699271	-0.0385159	-0.433475	1.4707	0.380485	0.018971	0	0	0.905908	-0.327374	1.29033	0.839873	0.450295	0	0
5.62483	-0.156686	-0.0127062	-3.09095	-0.121479	0.973361	0.012171	0.371732	-0.0894174	-0.271331	0.500455	0.123181	0	0	-0.26156	0.0782735	-0.000811389	0.223644	0.368002	0	0	-0.438788	-0.0074069	-0.00773461	-0.0455852	-0.437686	1.46555	0.376917	0.0191019	0	0	0.918354	-0.335312	1.2648	0.85852	0.479903	0	0
5.63483	-0.154305	-0.0138798	-3.09533	-0.119877	0.970266	0.0116442	0.376579	-0.0818731	-0.25915	0.444698	0.128292	0	0	-0.27473	0.0800696	-0.00207093	0.221659	0.380826	0	0	-0.436716	-0.00744712	-0.00802806	-0.052001	-0.441396	1.45984	0.373371	0.019171	0	0	0.928695	-0.342969	1.23898	0.876374	0.50891	0	0
5.64482	-0.151432	-0.0146335	-3.09949	-0.118467	0.967057	0.0110316	0.381391	-0.073661	-0.243875	0.391627	0.134307	0	0	-0.286446	0.0811554	-0.00356583	0.221831	0.394005	0	0	-0.433981	-0.00684998	-0.00785522	-0.0578467	-0.444626	1.45346	0.369921	0.0191986	0	0	0.936969	-0.350153	1.21336	0.893297	0.536973	0	0
5.65481	-0.148219	-0.0148991	-3.1033	-0.117272	0.963797	0.0103341	0.386157	-0.0649603	-0.225798	0.342412	0.141064	0	0	-0.296902	0.0814165	-0.00514805	0.224125	0.407303	0	0	-0.430737	-0.00550789	-0.0072088	-0.063194	-0.447398	1.44636	0.366648	0.0192014	0	0	0.943232	-0.356693	1.18835	0.909188	0.563752	0	0
5.6648	-0.144854	-0.0146317	-3.1066	-0.116312	0.960552	0.00955459	0.390837	-0.0560002	-0.205498	0.298241	0.148182	0	0	-0.306333	0.0807609	-0.00666854	0.228497	0.420436	0	0	-0.427183	-0.00335023	-0.00609844	-0.0680966	-0.449732	1.43851	0.363633	0.0191922	0	0	0.947561	-0.362446	1.16432	0.923981	0.588914	0	0
5.67479	-0.141553	-0.0138063	-3.1093	-0.115605	0.95739	0.00869774	0.395378	-0.0470315	-0.183829	0.260255	0.155098	0	0	-0.314995	0.0791174	-0.00800162	0.234905	0.433073	0	0	-0.423541	-0.00034374	-0.00454722	-0.0725864	-0.451646	1.42997	0.36096	0.019181	0	0	0.950047	-0.367308	1.14157	0.93765	0.612132	0	0
5.68478	-0.138523	-0.0124194	-3.11129	-0.115168	0.954373	0.00777011	0.39974	-0.0383005	-0.161856	0.229476	0.161133	0	0	-0.323129	0.0764373	-0.00906527	0.243317	0.444838	0	0	-0.420027	0.00350562	-0.00259709	-0.0766683	-0.45315	1.42085	0.358702	0.0191747	0	0	0.950774	-0.371222	1.12035	0.950202	0.633135	0	0
5.69477	-0.135943	-0.0104881	-3.1125	-0.115013	0.951554	0.00677958	0.403899	-0.0300272	-0.140745	0.20672	0.165559	0	0	-0.330918	0.0726925	-0.00981867	0.253731	0.455321	0	0	-0.416818	0.00815653	-0.000316233	-0.0803149	-0.454236	1.41133	0.356917	0.0191778	0	0	0.949814	-0.374185	1.10083	0.961675	0.651731	0	0
5.70476	-0.133942	-0.00804379	-3.11286	-0.115151	0.948971	0.00573434	0.40785	-0.0223842	-0.121631	0.192479	0.167656	0	0	-0.338454	0.067867	-0.0102663	0.266192	0.464073	0	0	-0.414029	0.0135444	0.00219886	-0.083466	-0.454883	1.40171	0.355637	0.0191928	0	0	0.947214	-0.376248	1.08311	0.972115	0.667837	0	0
5.71475	-0.132592	-0.00511723	-3.11234	-0.115585	0.946647	0.00464158	0.41157	-0.0154782	-0.105479	0.186823	0.16677	0	0	-0.345714	0.0619385	-0.0104694	0.280809	0.470615	0	0	-0.411713	0.0196033	0.00482864	-0.0860286	-0.455061	1.39233	0.354863	0.0192205	0	0	0.943	-0.377502	1.06723	0.981563	0.681487	0	0
5.72474	-0.131908	-0.00173215	-3.1109	-0.116314	0.944585	0.00350622	0.415007	-0.0093484	-0.0929747	0.189346	0.16239	0	0	-0.352559	0.0548724	-0.0105548	0.297763	0.474438	0	0	-0.409856	0.0262775	0.00744013	-0.0878856	-0.45474	1.38356	0.354572	0.0192603	0	0	0.937177	-0.378063	1.05318	0.990031	0.692817	0	0
5.73473	-0.13185	0.00209158	-3.10853	-0.117335	0.94278	0.00232869	0.418079	-0.00398094	-0.0844719	0.19921	0.154275	0	0	-0.358737	0.0466253	-0.0107091	0.317298	0.475012	0	0	-0.408385	0.0335194	0.00989665	-0.0889051	-0.453895	1.37579	0.354729	0.0193096	0	0	0.929736	-0.378059	1.04096	0.997494	0.702029	0	0
5.74472	-0.132342	0.00632746	-3.10526	-0.118639	0.94122	0.00110552	0.420696	0.000668514	-0.0800084	0.215288	0.142585	0	0	-0.363913	0.03716	-0.0111515	0.339697	0.471777	0	0	-0.407184	0.0412778	0.0120688	-0.0889512	-0.452507	1.36938	0.355281	0.0193647	0	0	0.920676	-0.377609	1.03056	1.00388	0.70934	0	0
5.75472	-0.13328	0.0109312	-3.10112	-0.120209	0.939889	-0.000169585	0.42279	0.00465447	-0.079351	0.236341	0.12794	0	0	-0.367699	0.0264612	-0.0121061	0.365252	0.464162	0	0	-0.406109	0.0494822	0.0138491	-0.0878964	-0.450564	1.36465	0.356158	0.0194199	0	0	0.910015	-0.376811	1.022	1.00906	0.714945	0	0
5.76471	-0.134547	0.0158335	-3.09617	-0.122026	0.938766	-0.00150478	0.424332	0.00803129	-0.0820604	0.261183	0.11134	0	0	-0.369682	0.0145503	-0.0137759	0.394242	0.451605	0	0	-0.405008	0.05803	0.0151691	-0.0856298	-0.44806	1.36187	0.357283	0.0194674	0	0	0.8978	-0.375733	1.01537	1.01289	0.718998	0	0
5.7747	-0.136025	0.0209399	-3.09055	-0.124058	0.937835	-0.00290955	0.425328	0.0108549	-0.0875649	0.28878	0.094005	0	0	-0.369451	0.00149441	-0.0163271	0.426907	0.433606	0	0	-0.403744	0.0667782	0.0160186	-0.0820593	-0.445003	1.36123	0.358582	0.0194973	0	0	0.884122	-0.374403	1.01076	1.01518	0.721594	0	0
5.78469	-0.137611	0.0261435	-3.08442	-0.126267	0.937077	-0.00439451	0.425804	0.013203	-0.0952146	0.318273	0.0772352	0	0	-0.366634	-0.0125966	-0.0198854	0.463414	0.409785	0	0	-0.402218	0.0755514	0.0164683	-0.0771118	-0.441418	1.3628	0.360002	0.0194972	0	0	0.869124	-0.372806	1.00834	1.01572	0.722765	0	0
5.79468	-0.139233	0.0313503	-3.07801	-0.128603	0.936481	-0.00597065	0.425761	0.0152049	-0.104318	0.348935	0.0622982	0	0	-0.360934	-0.0275865	-0.0245311	0.503832	0.379958	0	0	-0.400396	0.0841666	0.0166821	-0.0707282	-0.437351	1.36655	0.361522	0.0194524	0	0	0.853	-0.37088	1.00831	1.01432	0.722468	0	0
